<?xml version="1.0" encoding="utf-8" ?>
<svg baseProfile="full" height="200" version="1.1" width="665" xmlns="http://www.w3.org/2000/svg" xmlns:ev="http://www.w3.org/2001/xml-events" xmlns:xlink="http://www.w3.org/1999/xlink"><defs /><path d="M 114,114 L 115,115 L 115,117 L 116,118 L 116,119 L 117,119 L 122,124 L 123,124 L 126,127 L 127,127 L 128,128 L 128,129 L 129,129 L 130,130 L 131,130 L 134,133 L 135,133 L 137,135 L 138,135 L 139,136 L 140,136 L 142,138 L 143,138 L 144,139 L 145,139 L 146,140 L 147,140 L 149,142 L 151,142 L 152,143 L 153,143 L 154,144 L 155,144 L 156,145 L 157,145 L 158,146 L 159,146 L 160,147 L 162,147 L 163,148 L 164,148 L 165,149 L 166,149 L 167,150 L 169,150 L 170,151 L 172,151 L 173,152 L 174,152 L 175,153 L 179,153 L 180,154 L 181,154 L 182,155 L 186,155 L 187,156 L 190,156 L 191,157 L 195,157 L 196,158 L 201,158 L 202,159 L 215,159 L 216,160 L 222,160 L 223,161 L 228,161 L 229,160 L 231,160 L 232,161 L 233,160 L 236,160 L 237,159 L 246,159 L 247,158 L 248,159 L 249,159 L 250,158 L 252,158 L 253,157 L 259,157 L 260,156 L 263,156 L 264,155 L 267,155 L 268,154 L 271,154 L 272,153 L 274,153 L 275,152 L 277,152 L 278,151 L 281,151 L 282,150 L 283,150 L 284,149 L 287,149 L 289,147 L 290,147 L 291,146 L 292,146 L 293,145 L 294,145 L 295,144 L 296,145 L 298,143 L 299,143 L 300,142 L 301,142 L 302,141 L 303,141 L 304,140 L 305,140 L 307,138 L 308,138 L 310,136 L 311,136 L 313,134 L 314,134 L 315,133 L 316,133 L 317,134 L 316,133 L 316,132 L 318,130 L 319,131 L 319,130 L 315,126 L 313,126 L 312,127 L 311,126 L 310,126 L 308,128 L 307,128 L 306,129 L 304,129 L 303,130 L 302,130 L 301,131 L 300,131 L 299,132 L 297,132 L 296,133 L 293,133 L 292,134 L 290,134 L 289,135 L 286,135 L 285,136 L 283,136 L 282,137 L 280,137 L 279,136 L 280,137 L 279,138 L 274,138 L 273,139 L 269,139 L 268,140 L 263,140 L 262,141 L 259,141 L 258,142 L 257,141 L 256,141 L 255,142 L 246,142 L 245,143 L 241,143 L 240,144 L 215,144 L 214,143 L 210,143 L 209,142 L 197,142 L 196,141 L 193,141 L 192,140 L 187,140 L 186,139 L 182,139 L 181,138 L 177,138 L 176,137 L 174,137 L 173,136 L 168,136 L 167,135 L 166,135 L 165,134 L 165,133 L 164,134 L 163,134 L 162,133 L 161,133 L 160,132 L 157,132 L 156,131 L 155,131 L 154,130 L 152,130 L 151,129 L 148,129 L 147,128 L 146,128 L 145,127 L 143,127 L 142,126 L 141,126 L 140,125 L 139,125 L 138,124 L 138,123 L 137,123 L 136,124 L 135,123 L 134,123 L 133,122 L 132,122 L 131,121 L 130,121 L 129,120 L 128,120 L 127,119 L 126,119 L 125,118 L 124,118 L 122,116 L 121,116 L 120,115 L 119,115 L 118,114 L 116,114 L 115,115 Z" fill="white" /><path d="M 338,112 Z" fill="white" /><path d="M 335,110 Z" fill="white" /><path d="M 311,110 L 310,111 L 308,111 L 307,112 L 304,112 L 303,113 L 302,113 L 301,114 L 299,114 L 296,117 L 295,117 L 294,118 L 294,120 L 295,120 L 296,121 L 299,121 L 300,120 L 306,120 L 307,119 L 320,119 L 321,120 L 323,120 L 326,123 L 326,125 L 325,126 L 325,131 L 324,132 L 324,135 L 323,136 L 323,138 L 322,139 L 322,140 L 321,141 L 321,142 L 320,143 L 320,145 L 319,146 L 319,148 L 318,149 L 317,148 L 318,149 L 318,150 L 317,151 L 318,150 L 319,151 L 321,151 L 322,150 L 323,150 L 326,147 L 326,146 L 328,144 L 328,143 L 330,141 L 330,140 L 331,139 L 331,138 L 332,137 L 332,136 L 333,135 L 333,133 L 334,132 L 334,131 L 335,130 L 335,127 L 336,126 L 336,122 L 337,121 L 337,115 L 336,114 L 336,113 L 335,112 L 334,112 L 333,111 L 330,111 L 329,110 Z" fill="white" /><path d="M 196,110 Z" fill="white" /><path d="M 506,109 Z" fill="white" /><path d="M 464,109 Z" fill="white" /><path d="M 129,109 Z" fill="white" /><path d="M 344,108 Z" fill="white" /><path d="M 396,107 Z" fill="white" /><path d="M 294,107 Z" fill="white" /><path d="M 499,106 Z" fill="white" /><path d="M 60,105 Z" fill="white" /><path d="M 418,104 Z" fill="white" /><path d="M 125,104 Z" fill="white" /><path d="M 225,100 Z" fill="white" /><path d="M 485,96 L 484,97 L 483,97 L 481,99 L 481,100 L 480,101 L 481,102 L 481,105 L 482,106 L 482,107 L 484,107 L 485,108 L 489,108 L 490,107 L 491,107 L 493,105 L 493,99 L 492,98 L 493,97 L 492,98 L 491,97 L 490,97 L 489,96 Z" fill="white" /><path d="M 354,94 Z" fill="white" /><path d="M 225,77 Z" fill="white" /><path d="M 236,65 Z" fill="white" /><path d="M 241,64 Z" fill="white" /><path d="M 537,63 Z" fill="white" /><path d="M 75,63 Z" fill="white" /><path d="M 73,63 Z" fill="white" /><path d="M 77,62 Z" fill="white" /><path d="M 241,61 Z" fill="white" /><path d="M 261,60 L 260,61 Z" fill="white" /><path d="M 73,60 Z" fill="white" /><path d="M 69,60 Z" fill="white" /><path d="M 226,58 Z" fill="white" /><path d="M 57,58 Z" fill="white" /><path d="M 316,54 Z" fill="white" /><path d="M 314,54 Z" fill="white" /><path d="M 189,54 Z" fill="white" /><path d="M 503,36 L 501,38 L 500,38 L 501,39 L 501,106 L 502,107 L 507,107 L 508,108 L 509,107 L 511,107 L 512,106 L 512,38 L 510,36 L 509,37 L 504,37 Z" fill="white" /><path d="M 561,35 Z" fill="white" /><path d="M 548,35 L 547,36 L 545,36 L 544,37 L 543,37 L 541,39 L 540,39 L 539,40 L 538,39 L 539,40 L 538,41 L 538,42 L 537,43 L 536,42 L 537,43 L 535,45 L 534,44 L 534,38 L 532,36 L 531,37 L 529,37 L 528,36 L 527,37 L 526,36 L 524,38 L 524,106 L 526,108 L 527,108 L 528,107 L 530,109 L 532,107 L 534,107 L 534,106 L 535,105 L 535,62 L 536,61 L 536,58 L 537,57 L 537,56 L 538,55 L 538,54 L 541,51 L 541,50 L 542,49 L 543,49 L 543,48 L 544,47 L 545,47 L 546,46 L 548,46 L 549,47 L 548,46 L 549,45 L 554,45 L 557,48 L 556,49 L 557,48 L 559,50 L 558,51 L 559,50 L 561,52 L 560,53 L 562,55 L 562,62 L 563,63 L 562,64 L 563,65 L 563,105 L 561,107 L 562,108 L 563,107 L 564,107 L 565,108 L 566,107 L 568,107 L 569,108 L 570,107 L 572,107 L 573,106 L 573,56 L 572,55 L 572,50 L 571,49 L 571,48 L 570,47 L 571,46 L 568,43 L 568,42 L 564,38 L 563,38 L 562,37 L 560,37 L 559,36 L 557,36 L 556,35 L 550,35 L 549,36 Z" fill="white" /><path d="M 508,35 Z" fill="white" /><path d="M 422,35 L 423,36 L 422,37 L 420,37 L 419,38 L 419,46 L 420,47 L 420,105 L 419,106 L 420,107 L 421,107 L 422,108 L 423,107 L 433,107 L 434,108 L 435,107 L 436,107 L 437,106 L 437,105 L 438,104 L 437,103 L 437,65 L 438,64 L 438,60 L 439,59 L 439,58 L 440,57 L 440,56 L 444,52 L 446,52 L 447,51 L 448,52 L 449,52 L 450,53 L 451,53 L 453,55 L 453,56 L 454,57 L 454,60 L 455,61 L 455,107 L 458,107 L 459,108 L 460,107 L 461,107 L 462,108 L 463,107 L 466,107 L 467,108 L 468,107 L 469,107 L 470,108 L 471,107 L 472,107 L 473,106 L 472,105 L 472,64 L 473,63 L 473,62 L 472,61 L 472,49 L 471,48 L 471,46 L 470,45 L 470,44 L 469,43 L 469,42 L 467,40 L 468,39 L 467,40 L 465,38 L 464,38 L 463,37 L 462,37 L 461,36 L 459,36 L 458,35 L 451,35 L 450,36 L 448,36 L 447,35 L 447,36 L 446,37 L 445,37 L 444,36 L 445,37 L 444,38 L 443,38 L 442,37 L 443,38 L 440,41 L 439,41 L 438,42 L 436,40 L 436,37 L 435,37 L 434,36 L 433,37 L 432,36 L 431,37 L 424,37 Z" fill="white" /><path d="M 419,35 Z" fill="white" /><path d="M 375,35 L 374,36 L 372,36 L 371,37 L 369,37 L 368,38 L 367,38 L 366,37 L 367,38 L 366,39 L 365,39 L 358,46 L 358,47 L 357,48 L 357,49 L 355,51 L 355,53 L 354,54 L 354,56 L 353,57 L 353,59 L 352,60 L 352,67 L 351,68 L 351,76 L 352,77 L 352,83 L 353,84 L 353,87 L 354,88 L 354,90 L 355,91 L 354,92 L 355,92 L 356,93 L 356,94 L 357,95 L 357,96 L 358,97 L 358,98 L 362,102 L 361,103 L 362,102 L 364,104 L 365,104 L 367,106 L 368,106 L 370,108 L 371,107 L 373,109 L 374,108 L 375,108 L 376,109 L 377,108 L 378,109 L 384,109 L 385,108 L 388,108 L 389,107 L 391,107 L 392,106 L 393,106 L 394,105 L 395,105 L 396,104 L 397,105 L 396,104 L 397,103 L 398,103 L 401,100 L 401,99 L 404,96 L 404,95 L 407,92 L 406,91 L 407,90 L 407,88 L 408,87 L 408,85 L 409,84 L 409,79 L 410,78 L 410,66 L 409,65 L 409,60 L 408,59 L 408,57 L 407,56 L 407,54 L 406,53 L 406,52 L 405,51 L 405,50 L 404,49 L 404,48 L 403,47 L 403,46 L 397,40 L 396,40 L 395,39 L 396,38 L 395,39 L 394,38 L 392,38 L 391,37 L 390,37 L 389,36 L 390,35 L 389,36 L 386,36 L 385,35 L 377,35 L 376,36 Z" fill="white" /><path d="M 299,35 L 296,38 L 297,39 L 297,50 L 298,51 L 299,50 L 300,51 L 301,50 L 302,51 L 319,51 L 320,52 L 318,54 L 318,55 L 316,57 L 315,56 L 316,57 L 316,58 L 315,59 L 314,58 L 315,59 L 314,60 L 314,61 L 311,64 L 311,65 L 309,67 L 309,68 L 308,69 L 307,68 L 308,69 L 306,71 L 306,72 L 305,73 L 305,74 L 303,76 L 302,75 L 303,76 L 302,77 L 302,78 L 300,80 L 300,81 L 298,83 L 298,84 L 296,86 L 296,87 L 294,89 L 295,90 L 294,91 L 293,91 L 294,92 L 294,104 L 296,106 L 297,106 L 298,107 L 297,106 L 298,105 L 299,105 L 300,106 L 299,105 L 300,104 L 301,104 L 302,103 L 304,103 L 305,102 L 307,102 L 308,101 L 312,101 L 313,100 L 314,100 L 315,101 L 316,100 L 324,100 L 325,101 L 331,101 L 332,102 L 334,102 L 335,103 L 337,103 L 338,104 L 339,104 L 340,105 L 345,105 L 345,91 L 346,90 L 347,91 L 346,90 L 345,91 L 343,89 L 343,88 L 342,89 L 341,88 L 340,88 L 339,87 L 338,87 L 337,86 L 333,86 L 332,85 L 329,85 L 328,84 L 327,85 L 326,84 L 321,84 L 320,83 L 322,81 L 322,80 L 323,79 L 324,80 L 323,79 L 323,78 L 325,76 L 325,75 L 327,73 L 327,72 L 329,70 L 329,69 L 332,66 L 332,65 L 334,63 L 334,62 L 337,59 L 337,58 L 340,55 L 340,54 L 341,53 L 341,52 L 343,50 L 343,49 L 344,48 L 344,37 L 343,37 L 342,36 L 302,36 L 301,35 L 300,36 Z" fill="white" /><path d="M 170,35 Z" fill="white" /><path d="M 255,34 L 254,35 L 246,35 L 245,36 L 243,36 L 242,37 L 240,37 L 239,38 L 238,38 L 237,39 L 236,38 L 235,39 L 235,40 L 230,45 L 230,46 L 229,47 L 229,48 L 228,49 L 228,51 L 227,52 L 227,55 L 226,56 L 227,56 L 228,57 L 232,57 L 233,58 L 234,58 L 235,59 L 236,58 L 243,58 L 244,57 L 244,54 L 249,49 L 252,49 L 253,48 L 254,49 L 255,48 L 256,48 L 257,49 L 258,49 L 262,53 L 262,55 L 263,56 L 263,61 L 261,63 L 256,63 L 255,64 L 247,64 L 246,65 L 243,65 L 242,66 L 240,66 L 239,67 L 238,67 L 237,68 L 236,68 L 235,69 L 234,69 L 233,68 L 234,67 L 233,68 L 234,69 L 228,75 L 228,76 L 227,77 L 227,78 L 226,79 L 226,81 L 225,82 L 225,93 L 224,94 L 225,94 L 226,95 L 226,96 L 225,97 L 224,96 L 228,100 L 228,101 L 233,106 L 234,106 L 236,108 L 237,107 L 238,107 L 239,108 L 252,108 L 253,107 L 255,107 L 256,106 L 257,107 L 257,106 L 258,105 L 259,105 L 262,102 L 263,102 L 263,101 L 264,100 L 266,100 L 267,101 L 267,102 L 269,104 L 269,105 L 270,106 L 271,106 L 273,108 L 275,108 L 276,107 L 277,107 L 284,100 L 285,100 L 286,99 L 286,98 L 287,97 L 286,96 L 286,95 L 284,93 L 284,92 L 282,90 L 282,87 L 281,86 L 281,52 L 280,51 L 280,48 L 279,47 L 279,45 L 276,42 L 276,41 L 275,40 L 274,40 L 272,38 L 271,38 L 270,37 L 269,37 L 267,35 L 266,36 L 265,36 L 263,34 L 262,35 L 259,35 L 258,34 L 257,35 L 256,35 Z" fill="white" /><path d="M 156,34 L 157,35 L 156,36 L 153,36 L 152,37 L 151,37 L 150,38 L 149,37 L 148,38 L 149,39 L 146,42 L 146,43 L 145,44 L 144,43 L 144,39 L 143,38 L 143,37 L 142,36 L 141,36 L 140,37 L 139,36 L 138,37 L 136,37 L 135,36 L 134,37 L 133,37 L 132,36 L 131,37 L 130,37 L 129,36 L 128,37 L 127,37 L 126,36 L 125,37 L 127,39 L 127,107 L 126,108 L 125,107 L 125,108 L 126,108 L 127,107 L 130,107 L 131,108 L 132,107 L 133,107 L 134,108 L 135,107 L 136,107 L 137,108 L 138,107 L 139,108 L 140,108 L 141,107 L 144,107 L 144,72 L 145,71 L 145,70 L 144,69 L 144,65 L 145,64 L 145,60 L 146,59 L 145,58 L 146,57 L 146,56 L 150,52 L 156,52 L 160,56 L 160,57 L 161,58 L 161,106 L 162,107 L 163,107 L 164,108 L 165,107 L 166,108 L 167,107 L 178,107 L 179,106 L 179,60 L 180,59 L 180,58 L 181,57 L 181,56 L 184,53 L 185,53 L 186,52 L 191,52 L 195,56 L 195,57 L 196,58 L 196,106 L 198,108 L 199,108 L 200,107 L 209,107 L 210,108 L 211,107 L 213,107 L 213,105 L 214,104 L 213,103 L 213,64 L 214,63 L 214,54 L 213,53 L 213,46 L 212,45 L 212,44 L 205,37 L 206,36 L 205,37 L 203,37 L 202,36 L 202,35 L 201,36 L 200,36 L 199,35 L 191,35 L 190,34 L 191,35 L 190,36 L 188,36 L 187,35 L 188,36 L 187,37 L 186,37 L 185,38 L 184,37 L 182,39 L 182,40 L 180,42 L 180,43 L 179,44 L 178,43 L 178,42 L 178,43 L 179,44 L 179,45 L 178,46 L 177,46 L 176,45 L 176,44 L 175,43 L 175,42 L 170,37 L 168,37 L 167,36 L 168,35 L 167,36 L 166,35 L 165,36 L 164,35 L 157,35 Z" fill="white" /><path d="M 128,34 Z" fill="white" /><path d="M 82,34 L 81,35 L 78,35 L 77,36 L 73,36 L 72,35 L 73,36 L 72,37 L 71,37 L 70,38 L 69,38 L 67,40 L 66,40 L 61,45 L 60,44 L 61,45 L 61,46 L 60,47 L 60,48 L 59,49 L 59,50 L 58,51 L 58,53 L 57,54 L 58,55 L 58,56 L 59,57 L 64,57 L 65,58 L 74,58 L 74,57 L 75,56 L 75,54 L 79,50 L 80,50 L 81,49 L 82,49 L 83,48 L 84,49 L 85,49 L 86,48 L 87,49 L 89,49 L 90,50 L 89,51 L 90,50 L 93,53 L 93,55 L 94,56 L 94,59 L 93,60 L 92,60 L 91,61 L 92,61 L 93,62 L 92,63 L 86,63 L 85,64 L 84,63 L 84,62 L 84,63 L 83,64 L 78,64 L 77,65 L 74,65 L 73,66 L 71,66 L 70,67 L 69,67 L 68,66 L 70,64 L 68,66 L 67,66 L 65,68 L 65,69 L 64,70 L 63,70 L 62,71 L 62,72 L 59,75 L 58,75 L 59,76 L 58,77 L 57,77 L 58,78 L 57,79 L 57,81 L 56,82 L 56,95 L 57,96 L 57,99 L 64,106 L 65,106 L 66,107 L 68,107 L 69,108 L 83,108 L 84,107 L 86,107 L 87,106 L 88,106 L 89,105 L 90,105 L 93,102 L 94,102 L 94,101 L 96,99 L 97,100 L 97,101 L 96,102 L 97,101 L 99,103 L 99,104 L 101,106 L 102,106 L 104,108 L 106,108 L 108,106 L 109,106 L 116,99 L 117,99 L 117,95 L 115,93 L 115,92 L 113,90 L 114,89 L 112,87 L 112,53 L 111,52 L 111,48 L 110,47 L 110,45 L 108,43 L 108,42 L 107,42 L 105,40 L 105,39 L 104,39 L 103,38 L 103,37 L 102,38 L 101,37 L 100,37 L 99,36 L 95,36 L 94,35 L 89,35 L 88,34 L 87,34 L 86,35 L 83,35 Z" fill="white" /><path d="M 499,14 Z" fill="white" /><path d="M 506,12 L 505,13 L 503,13 L 500,16 L 500,21 L 503,24 L 504,24 L 505,25 L 506,24 L 507,25 L 508,24 L 510,24 L 512,22 L 512,21 L 513,20 L 513,16 L 510,13 L 508,13 L 507,12 Z" fill="white" /></svg>